<svg xmlns="http://www.w3.org/2000/svg" x="0px" y="0px"
width="96" height="96"
viewBox="0 0 172 172"
style=" fill:#000000;"><defs><linearGradient x1="102.125" y1="53.75" x2="102.125" y2="145.125" gradientUnits="userSpaceOnUse" id="color-1_52509_gr1"><stop offset="0" stop-color="#8ab4ff"></stop><stop offset="1" stop-color="#e492ff"></stop></linearGradient><linearGradient x1="69.875" y1="25.86719" x2="69.875" y2="119.25781" gradientUnits="userSpaceOnUse" id="color-2_52509_gr2"><stop offset="0" stop-color="#8ab4ff"></stop><stop offset="1" stop-color="#e492ff"></stop></linearGradient><linearGradient x1="86" y1="13.4375" x2="86" y2="158.28031" gradientUnits="userSpaceOnUse" id="color-3_52509_gr3"><stop offset="0" stop-color="#1a6dff"></stop><stop offset="1" stop-color="#c822ff"></stop></linearGradient><linearGradient x1="51.0625" y1="13.4375" x2="51.0625" y2="158.28031" gradientUnits="userSpaceOnUse" id="color-4_52509_gr4"><stop offset="0" stop-color="#1a6dff"></stop><stop offset="1" stop-color="#c822ff"></stop></linearGradient><linearGradient x1="88.6875" y1="13.4375" x2="88.6875" y2="158.28031" gradientUnits="userSpaceOnUse" id="color-5_52509_gr5"><stop offset="0" stop-color="#1a6dff"></stop><stop offset="1" stop-color="#c822ff"></stop></linearGradient><linearGradient x1="69.875" y1="13.4375" x2="69.875" y2="158.28031" gradientUnits="userSpaceOnUse" id="color-6_52509_gr6"><stop offset="0" stop-color="#1a6dff"></stop><stop offset="1" stop-color="#c822ff"></stop></linearGradient></defs><g transform="translate(-20.64,-20.64) scale(1.24,1.24)"><g fill="none" fill-rule="nonzero" stroke="none" stroke-width="1" stroke-linecap="butt" stroke-linejoin="miter" stroke-miterlimit="10" stroke-dasharray="" stroke-dashoffset="0" font-family="none" font-weight="none" font-size="none" text-anchor="none" style="mix-blend-mode: normal"><path d="M0,172v-172h172v172z" fill="none"></path><g><path d="M131.6875,145.125h-59.125c-2.96431,0 -5.375,-2.41069 -5.375,-5.375v-13.4375h5.375v13.4375h59.125v-80.625h-18.8125v-5.375h18.8125c2.96431,0 5.375,2.41069 5.375,5.375v80.625c0,2.96431 -2.41069,5.375 -5.375,5.375z" fill="url(#color-1_52509_gr1)"></path><path d="M99.4375,118.25h-59.125c-2.96431,0 -5.375,-2.41069 -5.375,-5.375v-80.625c0,-2.96431 2.41069,-5.375 5.375,-5.375h59.125c2.96431,0 5.375,2.41069 5.375,5.375v80.625c0,2.96431 -2.41069,5.375 -5.375,5.375zM40.3125,32.25v80.625h59.13037l-0.00537,-80.625z" fill="url(#color-2_52509_gr2)"></path><path d="M139.75,43h-24.1875v-18.8125c0,-4.44513 -3.61738,-8.0625 -8.0625,-8.0625h-75.25c-4.44513,0 -8.0625,3.61737 -8.0625,8.0625v96.75c0,4.44512 3.61737,8.0625 8.0625,8.0625h24.1875v18.8125c0,4.44512 3.61738,8.0625 8.0625,8.0625h75.25c4.44512,0 8.0625,-3.61738 8.0625,-8.0625v-96.75c0,-4.44512 -3.61737,-8.0625 -8.0625,-8.0625zM29.5625,120.9375v-96.75c0,-1.4835 1.204,-2.6875 2.6875,-2.6875h75.25c1.4835,0 2.6875,1.204 2.6875,2.6875v96.75c0,1.4835 -1.204,2.6875 -2.6875,2.6875h-75.25c-1.4835,0 -2.6875,-1.204 -2.6875,-2.6875zM142.4375,147.8125c0,1.4835 -1.204,2.6875 -2.6875,2.6875h-75.25c-1.4835,0 -2.6875,-1.204 -2.6875,-2.6875v-18.8125h45.6875c4.44512,0 8.0625,-3.61738 8.0625,-8.0625v-72.5625h24.1875c1.4835,0 2.6875,1.204 2.6875,2.6875z" fill="url(#color-3_52509_gr3)"></path><path d="M56.4375,44.34375v-2.6875c0,-2.22256 -1.80869,-4.03125 -4.03125,-4.03125h-2.6875c-2.22256,0 -4.03125,1.80869 -4.03125,4.03125v2.6875c0,2.22256 1.80869,4.03125 4.03125,4.03125h2.6875c2.22256,0 4.03125,-1.80869 4.03125,-4.03125z" fill="url(#color-4_52509_gr4)"></path><path d="M90.03125,96.75h-2.6875c-2.22256,0 -4.03125,1.80869 -4.03125,4.03125v2.6875c0,2.22256 1.80869,4.03125 4.03125,4.03125h2.6875c2.22256,0 4.03125,-1.80869 4.03125,-4.03125v-2.6875c0,-2.22256 -1.80869,-4.03125 -4.03125,-4.03125z" fill="url(#color-5_52509_gr5)"></path><path d="M86.94063,69.34019l-12.75756,-17.01188c-2.05325,-2.74125 -6.56019,-2.74125 -8.61344,0l-12.75756,17.01187c-1.42438,1.89737 -1.42438,4.54725 0,6.44463l12.75756,17.01188c1.02663,1.37062 2.59613,2.15537 4.30806,2.15537c1.71194,0 3.28144,-0.78475 4.30806,-2.15537l12.75756,-17.01187c1.42169,-1.89738 1.42169,-4.54725 -0.00269,-6.44463zM69.88306,55.55063l10.74194,14.32437h-21.49731zM69.87231,89.57975l-0.00537,-0.00538l-10.74194,-14.32437h21.5z" fill="url(#color-6_52509_gr6)"></path></g><path d="" fill="none"></path></g></g></svg>